<?xml version="1.0" encoding="utf-8" standalone="no"?><svg xmlns="http://www.w3.org/2000/svg" height="744px" width="1052px" version="1.1" xmlns:xlink="http://www.w3.org/1999/xlink"  >
<defs  >
<filter height="1.9" width="1.9" y="-.5" x="-.3" id="filterShadow"  >
<feGaussianBlur result="out1" in="SourceAlpha" stdDeviation="4"  />
<feOffset dy="-4" result="out2" dx="4" in="out1"  />
<feMerge  >
<feMergeNode in="out2"  />
<feMergeNode in="SourceGraphic"  />
</feMerge>
</filter>
</defs>
<g  >
<line y1="0" x2="77" style="stroke:lightgrey; stroke-width:0.5; " x1="77" y2="794"  />
<line y1="0" x2="175" style="stroke:lightgrey; stroke-width:0.5; " x1="175" y2="794"  />
<text style="&lt;pysvg.builders.StyleBuilder instance at 0x034F0D50&gt;" y="397" x="80"  >
1820</text>
<line y1="0" x2="272" style="stroke:lightgrey; stroke-width:0.5; " x1="272" y2="794"  />
<text style="&lt;pysvg.builders.StyleBuilder instance at 0x034F0D50&gt;" y="397" x="178"  >
1821</text>
<line y1="0" x2="369" style="stroke:lightgrey; stroke-width:0.5; " x1="369" y2="794"  />
<text style="&lt;pysvg.builders.StyleBuilder instance at 0x034F0D50&gt;" y="397" x="275"  >
1822</text>
<line y1="0" x2="466" style="stroke:lightgrey; stroke-width:0.5; " x1="466" y2="794"  />
<text style="&lt;pysvg.builders.StyleBuilder instance at 0x034F0D50&gt;" y="397" x="372"  >
1823</text>
<line y1="0" x2="564" style="stroke:lightgrey; stroke-width:0.5; " x1="564" y2="794"  />
<text style="&lt;pysvg.builders.StyleBuilder instance at 0x034F0D50&gt;" y="397" x="469"  >
1824</text>
<line y1="0" x2="661" style="stroke:lightgrey; stroke-width:0.5; " x1="661" y2="794"  />
<text style="&lt;pysvg.builders.StyleBuilder instance at 0x034F0D50&gt;" y="397" x="567"  >
1825</text>
<line y1="0" x2="758" style="stroke:lightgrey; stroke-width:0.5; " x1="758" y2="794"  />
<text style="&lt;pysvg.builders.StyleBuilder instance at 0x034F0D50&gt;" y="397" x="664"  >
1826</text>
<line y1="0" x2="856" style="stroke:lightgrey; stroke-width:0.5; " x1="856" y2="794"  />
<text style="&lt;pysvg.builders.StyleBuilder instance at 0x034F0D50&gt;" y="397" x="761"  >
1827</text>
<line y1="0" x2="953" style="stroke:lightgrey; stroke-width:0.5; " x1="953" y2="794"  />
<text style="&lt;pysvg.builders.StyleBuilder instance at 0x034F0D50&gt;" y="397" x="859"  >
1828</text>
<line y1="0" x2="1051" style="stroke:lightgrey; stroke-width:0.5; " x1="1051" y2="794"  />
<text style="&lt;pysvg.builders.StyleBuilder instance at 0x034F0D50&gt;" y="397" x="956"  >
1829</text>
<line y1="0" x2="1148" style="stroke:lightgrey; stroke-width:0.5; " x1="1148" y2="794"  />
<text style="&lt;pysvg.builders.StyleBuilder instance at 0x034F0D50&gt;" y="397" x="1054"  >
1830</text>
<line y1="0" x2="1245" style="stroke:lightgrey; stroke-width:0.5; " x1="1245" y2="794"  />
<text style="&lt;pysvg.builders.StyleBuilder instance at 0x034F0D50&gt;" y="397" x="1151"  >
1831</text>
<line y1="0" x2="1343" style="stroke:lightgrey; stroke-width:0.5; " x1="1343" y2="794"  />
<text style="&lt;pysvg.builders.StyleBuilder instance at 0x034F0D50&gt;" y="397" x="1248"  >
1832</text>
<line y1="0" x2="1440" style="stroke:lightgrey; stroke-width:0.5; " x1="1440" y2="794"  />
<text style="&lt;pysvg.builders.StyleBuilder instance at 0x034F0D50&gt;" y="397" x="1346"  >
1833</text>
<line y1="0" x2="1537" style="stroke:lightgrey; stroke-width:0.5; " x1="1537" y2="794"  />
<text style="&lt;pysvg.builders.StyleBuilder instance at 0x034F0D50&gt;" y="397" x="1443"  >
1834</text>
<line y1="0" x2="1634" style="stroke:lightgrey; stroke-width:0.5; " x1="1634" y2="794"  />
<text style="&lt;pysvg.builders.StyleBuilder instance at 0x034F0D50&gt;" y="397" x="1540"  >
1835</text>
<text style="&lt;pysvg.builders.StyleBuilder instance at 0x034F0D50&gt;" y="51" x="3"  >
1800s</text>
<text style="&lt;pysvg.builders.StyleBuilder instance at 0x034F0D50&gt;" y="51" x="3"  >
1810s</text>
<text style="&lt;pysvg.builders.StyleBuilder instance at 0x034F0D50&gt;" y="27" x="80"  >
1820s</text>
<text style="&lt;pysvg.builders.StyleBuilder instance at 0x034F0D50&gt;" y="27" x="1054"  >
1830s</text>
<line y1="397" x2="1580" style="stroke:grey; stroke-width:0.5; " x1="0" y2="397"  />
<line y1="366" x2="389" style="stroke:black; stroke-width:1; " x1="389" y2="397"  />
<circle cy="397" cx="389" r="2" style="stroke:black; stroke-width:1; fill:none; "  />
<line y1="334" x2="168" style="stroke:black; stroke-width:1; " x1="168" y2="397"  />
<circle cy="397" cx="168" r="2" style="stroke:black; stroke-width:1; fill:none; "  />
<line y1="302" x2="102" style="stroke:black; stroke-width:1; " x1="102" y2="397"  />
<circle cy="397" cx="102" r="2" style="stroke:black; stroke-width:1; fill:none; "  />
<line y1="270" x2="223" style="stroke:black; stroke-width:1; " x1="223" y2="397"  />
<circle cy="397" cx="223" r="2" style="stroke:black; stroke-width:1; fill:none; "  />
<line y1="366" x2="743" style="stroke:black; stroke-width:1; " x1="743" y2="397"  />
<circle cy="397" cx="743" r="2" style="stroke:black; stroke-width:1; fill:none; "  />
<line y1="238" x2="255" style="stroke:black; stroke-width:1; " x1="255" y2="397"  />
<circle cy="397" cx="255" r="2" style="stroke:black; stroke-width:1; fill:none; "  />
<line y1="206" x2="251" style="stroke:black; stroke-width:1; " x1="251" y2="397"  />
<circle cy="397" cx="251" r="2" style="stroke:black; stroke-width:1; fill:none; "  />
<line y1="174" x2="442" style="stroke:black; stroke-width:1; " x1="442" y2="397"  />
<circle cy="397" cx="442" r="2" style="stroke:black; stroke-width:1; fill:none; "  />
<line y1="334" x2="931" style="stroke:black; stroke-width:1; " x1="931" y2="397"  />
<circle cy="397" cx="931" r="2" style="stroke:black; stroke-width:1; fill:none; "  />
<line y1="142" x2="641" style="stroke:black; stroke-width:1; " x1="641" y2="397"  />
<circle cy="397" cx="641" r="2" style="stroke:black; stroke-width:1; fill:none; "  />
<line y1="366" x2="1480" style="stroke:black; stroke-width:1; " x1="1480" y2="397"  />
<circle cy="397" cx="1480" r="2" style="stroke:black; stroke-width:1; fill:none; "  />
<line y1="110" x2="609" style="stroke:black; stroke-width:1; " x1="609" y2="397"  />
<circle cy="397" cx="609" r="2" style="stroke:black; stroke-width:1; fill:none; "  />
<line y1="78" x2="507" style="stroke:black; stroke-width:1; " x1="507" y2="397"  />
<circle cy="397" cx="507" r="2" style="stroke:black; stroke-width:1; fill:none; "  />
</g>
<defs  >
<clipPath id="path274_436"  >
<path d="M 271 439 H 390 V 417 H 271 "  />
</clipPath>
</defs>
<g  >
<rect style="stroke:#6089B2; stroke-width:1; fill:#8AC5FF; " height="22" filter="url(#filterShadow)" width="119" y="417" x="271"  />
<g clip-path="url(#path274_436)"  >
<text style="font-size:9; font-family:Verdana; text-anchor:left; " textLength="113" y="436" x="274" lengthAdjust="spacingAndGlyphs"  >
Julian under development</text>
</g>
<polygon style="stroke:#527699; stroke-width:1; fill:#527699; " points="380,417 390,417 390,427"  />
</g>
<defs  >
<clipPath id="path288_374"  >
<path d="M 285 377 H 493 V 355 H 285 "  />
</clipPath>
</defs>
<g  >
<rect style="stroke:#B27F4B; stroke-width:1; fill:#FFB66C; " height="22" filter="url(#filterShadow)" width="208" y="355" x="285"  />
<g clip-path="url(#path288_374)"  >
<text style="font-size:9; font-family:Verdana; text-anchor:left; " textLength="202" y="374" x="288" lengthAdjust="spacingAndGlyphs"  >
Julian Performed at Covent Garden</text>
</g>
<polygon style="stroke:#996D40; stroke-width:1; fill:#996D40; " points="483,355 493,355 493,365"  />
</g>
<defs  >
<clipPath id="path46_342"  >
<path d="M 43 345 H 294 V 323 H 43 "  />
</clipPath>
</defs>
<g  >
<rect style="stroke:#9771B1; stroke-width:1; fill:#D9A2FD; " height="22" filter="url(#filterShadow)" width="251" y="323" x="43"  />
<g clip-path="url(#path46_342)"  >
<text style="font-size:9; font-family:Verdana; text-anchor:left; " textLength="245" y="342" x="46" lengthAdjust="spacingAndGlyphs"  >
Mitford sees Macready perform in Wallace</text>
</g>
<polygon style="stroke:#826197; stroke-width:1; fill:#826197; " points="284,323 294,323 294,333"  />
</g>
<defs  >
<clipPath id="path6_310"  >
<path d="M 3 313 H 202 V 291 H 3 "  />
</clipPath>
</defs>
<g  >
<rect style="stroke:#B2B26C; stroke-width:1; fill:#FFFF9B; " height="22" filter="url(#filterShadow)" width="199" y="291" x="3"  />
<g clip-path="url(#path6_310)"  >
<text style="font-size:9; font-family:Verdana; text-anchor:left; " textLength="193" y="310" x="6" lengthAdjust="spacingAndGlyphs"  >
Mitford Move to Three Mile Cross</text>
</g>
<polygon style="stroke:#99995D; stroke-width:1; fill:#99995D; " points="192,291 202,291 202,301"  />
</g>
<defs  >
<clipPath id="path174_436"  >
<path d="M 171 439 H 257 V 417 H 171 "  />
</clipPath>
</defs>
<g  >
<rect style="stroke:#6089B2; stroke-width:1; fill:#8AC5FF; " height="22" filter="url(#filterShadow)" width="86" y="417" x="171"  />
<g clip-path="url(#path174_436)"  >
<text style="font-size:9; font-family:Verdana; text-anchor:left; " textLength="80" y="436" x="174" lengthAdjust="spacingAndGlyphs"  >
Fiesco under development</text>
</g>
<polygon style="stroke:#527699; stroke-width:1; fill:#527699; " points="247,417 257,417 257,427"  />
</g>
<defs  >
<clipPath id="path151_278"  >
<path d="M 148 281 H 298 V 259 H 148 "  />
</clipPath>
</defs>
<g  >
<rect style="stroke:#B2B26C; stroke-width:1; fill:#FFFF9B; " height="22" filter="url(#filterShadow)" width="150" y="259" x="148"  />
<g clip-path="url(#path151_278)"  >
<text style="font-size:9; font-family:Verdana; text-anchor:left; " textLength="144" y="278" x="151" lengthAdjust="spacingAndGlyphs"  >
Macready Rejects Fiesco</text>
</g>
<polygon style="stroke:#99995D; stroke-width:1; fill:#99995D; " points="288,259 298,259 298,269"  />
</g>
<defs  >
<clipPath id="path223_468"  >
<path d="M 220 471 H 744 V 449 H 220 "  />
</clipPath>
</defs>
<g  >
<rect style="stroke:#6089B2; stroke-width:1; fill:#8AC5FF; " height="22" filter="url(#filterShadow)" width="524" y="449" x="220"  />
<g clip-path="url(#path223_468)"  >
<text style="font-size:9; font-family:Verdana; text-anchor:left; " textLength="518" y="468" x="223" lengthAdjust="spacingAndGlyphs"  >
Foscari under development</text>
</g>
<polygon style="stroke:#527699; stroke-width:1; fill:#527699; " points="734,449 744,449 744,459"  />
</g>
<defs  >
<clipPath id="path638_374"  >
<path d="M 635 377 H 852 V 355 H 635 "  />
</clipPath>
</defs>
<g  >
<rect style="stroke:#B27F4B; stroke-width:1; fill:#FFB66C; " height="22" filter="url(#filterShadow)" width="217" y="355" x="635"  />
<g clip-path="url(#path638_374)"  >
<text style="font-size:9; font-family:Verdana; text-anchor:left; " textLength="211" y="374" x="638" lengthAdjust="spacingAndGlyphs"  >
Foscari Performed at Covent Garden</text>
</g>
<polygon style="stroke:#996D40; stroke-width:1; fill:#996D40; " points="842,355 852,355 852,365"  />
</g>
<defs  >
<clipPath id="path167_246"  >
<path d="M 164 249 H 346 V 227 H 164 "  />
</clipPath>
</defs>
<g  >
<rect style="stroke:#9771B1; stroke-width:1; fill:#D9A2FD; " height="22" filter="url(#filterShadow)" width="182" y="227" x="164"  />
<g clip-path="url(#path167_246)"  >
<text style="font-size:9; font-family:Verdana; text-anchor:left; " textLength="176" y="246" x="167" lengthAdjust="spacingAndGlyphs"  >
Byron's Two Foscari published</text>
</g>
<polygon style="stroke:#826197; stroke-width:1; fill:#826197; " points="336,227 346,227 346,237"  />
</g>
<defs  >
<clipPath id="path114_214"  >
<path d="M 111 217 H 392 V 195 H 111 "  />
</clipPath>
</defs>
<g  >
<rect style="stroke:#9771B1; stroke-width:1; fill:#D9A2FD; " height="22" filter="url(#filterShadow)" width="281" y="195" x="111"  />
<g clip-path="url(#path114_214)"  >
<text style="font-size:9; font-family:Verdana; text-anchor:left; " textLength="275" y="214" x="114" lengthAdjust="spacingAndGlyphs"  >
Euripides' Orestes: Valpy production at Reading</text>
</g>
<polygon style="stroke:#826197; stroke-width:1; fill:#826197; " points="382,195 392,195 392,205"  />
</g>
<defs  >
<clipPath id="path407_500"  >
<path d="M 404 503 H 929 V 481 H 404 "  />
</clipPath>
</defs>
<g  >
<rect style="stroke:#6089B2; stroke-width:1; fill:#8AC5FF; " height="22" filter="url(#filterShadow)" width="525" y="481" x="404"  />
<g clip-path="url(#path407_500)"  >
<text style="font-size:9; font-family:Verdana; text-anchor:left; " textLength="519" y="500" x="407" lengthAdjust="spacingAndGlyphs"  >
Rienzi and Charles I under development</text>
</g>
<polygon style="stroke:#527699; stroke-width:1; fill:#527699; " points="919,481 929,481 929,491"  />
</g>
<defs  >
<clipPath id="path302_182"  >
<path d="M 299 185 H 586 V 163 H 299 "  />
</clipPath>
</defs>
<g  >
<rect style="stroke:#B2B26C; stroke-width:1; fill:#FFFF9B; " height="22" filter="url(#filterShadow)" width="287" y="163" x="299"  />
<g clip-path="url(#path302_182)"  >
<text style="font-size:9; font-family:Verdana; text-anchor:left; " textLength="281" y="182" x="302" lengthAdjust="spacingAndGlyphs"  >
Macready's Contract Cancelled at Covent Garden</text>
</g>
<polygon style="stroke:#99995D; stroke-width:1; fill:#99995D; " points="576,163 586,163 586,173"  />
</g>
<defs  >
<clipPath id="path729_532"  >
<path d="M 726 535 H 793 V 513 H 726 "  />
</clipPath>
</defs>
<g  >
<rect style="stroke:#B2B26C; stroke-width:1; fill:#FFFF9B; " height="22" filter="url(#filterShadow)" width="67" y="513" x="726"  />
<g clip-path="url(#path729_532)"  >
<text style="font-size:9; font-family:Verdana; text-anchor:left; " textLength="61" y="532" x="729" lengthAdjust="spacingAndGlyphs"  >
Macready's U.S. Tour for 8 months</text>
</g>
<polygon style="stroke:#99995D; stroke-width:1; fill:#99995D; " points="783,513 793,513 793,523"  />
</g>
<defs  >
<clipPath id="path816_342"  >
<path d="M 813 345 H 1050 V 323 H 813 "  />
</clipPath>
</defs>
<g  >
<rect style="stroke:#B27F4B; stroke-width:1; fill:#FFB66C; " height="22" filter="url(#filterShadow)" width="237" y="323" x="813"  />
<g clip-path="url(#path816_342)"  >
<text style="font-size:9; font-family:Verdana; text-anchor:left; " textLength="231" y="342" x="816" lengthAdjust="spacingAndGlyphs"  >
Rienzi Performed at Drury Lane Theatre</text>
</g>
<polygon style="stroke:#996D40; stroke-width:1; fill:#996D40; " points="1040,323 1050,323 1050,333"  />
</g>
<defs  >
<clipPath id="path486_150"  >
<path d="M 483 153 H 800 V 131 H 483 "  />
</clipPath>
</defs>
<g  >
<rect style="stroke:#B2B26C; stroke-width:1; fill:#FFFF9B; " height="22" filter="url(#filterShadow)" width="317" y="131" x="483"  />
<g clip-path="url(#path486_150)"  >
<text style="font-size:9; font-family:Verdana; text-anchor:left; " textLength="311" y="150" x="486" lengthAdjust="spacingAndGlyphs"  >
Charles I Denied License by Lord Chamberlain's Office</text>
</g>
<polygon style="stroke:#99995D; stroke-width:1; fill:#99995D; " points="790,131 800,131 800,141"  />
</g>
<defs  >
<clipPath id="path1366_374"  >
<path d="M 1363 377 H 1590 V 355 H 1363 "  />
</clipPath>
</defs>
<g  >
<rect style="stroke:#B27F4B; stroke-width:1; fill:#FFB66C; " height="22" filter="url(#filterShadow)" width="227" y="355" x="1363"  />
<g clip-path="url(#path1366_374)"  >
<text style="font-size:9; font-family:Verdana; text-anchor:left; " textLength="221" y="374" x="1366" lengthAdjust="spacingAndGlyphs"  >
Charles I Performed at Victoria Theatre</text>
</g>
<polygon style="stroke:#996D40; stroke-width:1; fill:#996D40; " points="1580,355 1590,355 1590,365"  />
</g>
<defs  >
<clipPath id="path463_118"  >
<path d="M 460 121 H 758 V 99 H 460 "  />
</clipPath>
</defs>
<g  >
<rect style="stroke:#B2B26C; stroke-width:1; fill:#FFFF9B; " height="22" filter="url(#filterShadow)" width="298" y="99" x="460"  />
<g clip-path="url(#path463_118)"  >
<text style="font-size:9; font-family:Verdana; text-anchor:left; " textLength="292" y="118" x="463" lengthAdjust="spacingAndGlyphs"  >
Philo-Dramaticus Letter: MRM's Rift with Macready</text>
</g>
<polygon style="stroke:#99995D; stroke-width:1; fill:#99995D; " points="748,99 758,99 758,109"  />
</g>
<defs  >
<clipPath id="path415_86"  >
<path d="M 412 89 H 602 V 67 H 412 "  />
</clipPath>
</defs>
<g  >
<rect style="stroke:#B2B26C; stroke-width:1; fill:#FFFF9B; " height="22" filter="url(#filterShadow)" width="190" y="67" x="412"  />
<g clip-path="url(#path415_86)"  >
<text style="font-size:9; font-family:Verdana; text-anchor:left; " textLength="184" y="86" x="415" lengthAdjust="spacingAndGlyphs"  >
Our Village: first publication</text>
</g>
<polygon style="stroke:#99995D; stroke-width:1; fill:#99995D; " points="592,67 602,67 602,77"  />
</g>
<defs  >
<clipPath id="path915_675"  >
<path d="M 912 678 H 1047 V 664 H 912 "  />
</clipPath>
</defs>
<defs  >
<clipPath id="path915_692"  >
<path d="M 912 695 H 1047 V 681 H 912 "  />
</clipPath>
</defs>
<defs  >
<clipPath id="path915_709"  >
<path d="M 912 712 H 1047 V 698 H 912 "  />
</clipPath>
</defs>
<defs  >
<clipPath id="path915_726"  >
<path d="M 912 729 H 1047 V 715 H 912 "  />
</clipPath>
</defs>
<g  >
<rect style="stroke:black; stroke-width:1; fill:white; " height="78" width="157" y="661" x="890"  />
<rect style="stroke:#6089B2; stroke-width:1; fill:#8AC5FF; " height="14" width="14" y="664" x="895"  />
<g clip-path="url(#path915_675)"  >
<text style="font-size:9; font-family:Verdana; text-anchor:left; " textLength="129" y="675" x="915" lengthAdjust="spacingAndGlyphs"  >
drafting and revision</text>
</g>
<rect style="stroke:#B2B26C; stroke-width:1; fill:#FFFF9B; " height="14" width="14" y="681" x="895"  />
<g clip-path="url(#path915_692)"  >
<text style="font-size:9; font-family:Verdana; text-anchor:left; " textLength="129" y="692" x="915" lengthAdjust="spacingAndGlyphs"  >
Life Events</text>
</g>
<rect style="stroke:#B27F4B; stroke-width:1; fill:#FFB66C; " height="14" width="14" y="698" x="895"  />
<g clip-path="url(#path915_709)"  >
<text style="font-size:9; font-family:Verdana; text-anchor:left; " textLength="129" y="709" x="915" lengthAdjust="spacingAndGlyphs"  >
Mitford's plays performed</text>
</g>
<rect style="stroke:#9771B1; stroke-width:1; fill:#D9A2FD; " height="14" width="14" y="715" x="895"  />
<g clip-path="url(#path915_726)"  >
<text style="font-size:9; font-family:Verdana; text-anchor:left; " textLength="129" y="726" x="915" lengthAdjust="spacingAndGlyphs"  >
Works by Others</text>
</g>
</g>
</svg>
