<?xml version="1.0" encoding="UTF-8"?>
<!DOCTYPE svg PUBLIC "-//W3C//DTD SVG 1.0//EN" "http://www.w3.org/TR/2001/REC-SVG-20010904/DTD/svg10.dtd">
<svg width="960" height="500">
    <g transform="translate(40,20)">
        <g class="x axis" transform="translate(0,450)">
            <g class="tick" transform="translate(25.5,0)" style="opacity: 1;"><line y2="6" x2="0"></line>
                <text dy=".71em" y="9" x="0" style="text-anchor: middle;" fill="white">GER</text>
            </g>
            <g class="tick" transform="translate(59.5,0)" style="opacity: 1;"><line y2="6" x2="0" fill="white"></line>
                <text dy=".71em" y="9" x="0" style="text-anchor: middle;" fill="white">SOV</text>
            </g>
            <path class="domain" d="M0,6V0H900V6"></path>
        </g>
        <g class="y axis">
            <g class="tick" transform="translate(0,450)" style="opacity: 1;"><line x2="-6" y2="0" fill="white"></line>
                <text dy=".32em" x="-9" y="0" style="text-anchor: end;" fill="white">0k</text>
            </g>
            <g class="tick" transform="translate(0,414.57250826641473)" style="opacity: 1;"><line x2="-6" y2="0" fill="white"></line>
                <text dy=".32em" x="-9" y="0" style="text-anchor: end;" fill="white">100k</text>
            </g>
            <g class="tick" transform="translate(0,379.14501653282946)" style="opacity: 1;" fill="white"><line x2="-6" y2="0" fill="white"></line>
                <text dy=".32em" x="-9" y="0" style="text-anchor: end;">200k</text>
            </g>
            <g class="tick" transform="translate(0,343.71752479924425)" style="opacity: 1;"><line x2="-6" y2="0"></line>
                <text dy=".32em" x="-9" y="0" style="text-anchor: end;" fill="white">300k</text>
            </g>
            <g class="tick" transform="translate(0,308.290033065659)" style="opacity: 1;"><line x2="-6" y2="0"></line>
                <text dy=".32em" x="-9" y="0" style="text-anchor: end;" fill="white">400k</text>
            </g>
            <g class="tick" transform="translate(0,272.86254133207365)" style="opacity: 1;"><line x2="-6" y2="0"></line>
                <text dy=".32em" x="-9" y="0" style="text-anchor: end;" fill="white">500k</text>
            </g>
            <g class="tick" transform="translate(0,237.43504959848843)" style="opacity: 1;"><line x2="-6" y2="0"></line>
                <text dy=".32em" x="-9" y="0" style="text-anchor: end;" fill="white">600k</text>
            </g>
            <g class="tick" transform="translate(0,202.0075578649031)" style="opacity: 1;"><line x2="-6" y2="0"></line>
                <text dy=".32em" x="-9" y="0" style="text-anchor: end;" fill="white">700k</text>
            </g>
            <g class="tick" transform="translate(0,166.5800661313179)" style="opacity: 1;"><line x2="-6" y2="0"></line>
                <text dy=".32em" x="-9" y="0" style="text-anchor: end;" fill="white">800k</text>
            </g>
            <g class="tick" transform="translate(0,131.15257439773262)" style="opacity: 1;"><line x2="-6" y2="0"></line>
                <text dy=".32em" x="-9" y="0" style="text-anchor: end;" fill="white">900k</text>
            </g>
            <g class="tick" transform="translate(0,95.72508266414734)" style="opacity: 1;"><line x2="-6" y2="0"></line>
                <text dy=".32em" x="-9" y="0" style="text-anchor: end;" fill="white">1000k</text>
            </g>
            <g class="tick" transform="translate(0,60.297590930562116)" style="opacity: 1;"><line x2="-6" y2="0"></line>
                <text dy=".32em" x="-9" y="0" style="text-anchor: end;" fill="white">1100k</text>
            </g>
            <g class="tick" transform="translate(0,24.87009919697684)" style="opacity: 1;"><line x2="-6" y2="0" fill="white"></line>
                <text dy=".32em" x="-9" y="0" style="text-anchor: end;" fill="white">1200k</text>
            </g>
            <path class="domain" d="M-6,0H0V450H-6"></path>
            
        </g>
        <rect class="bar" x="10" width="31" y="92" height="361.66" fill="green"></rect>
        <rect class="bar" x="44" width="31" y="-17" height="470.416" fill="red"></rect>
    </g>
</svg>